<svg width="49" height="56" fill="none" xmlns="http://www.w3.org/2000/svg"><path d="M48.498 14c-14.996 6.026-17.247 5.094-12.849-5.746C28.46 17.484 26.528 16 24.249 0c-2.28 16-4.212 17.484-11.4 8.254C17.247 19.094 14.996 20.026 0 14c12.716 9.975 13.036 12.389 1.448 14C13.036 29.61 12.716 32.026 0 42c14.996-6.026 17.247-5.095 12.849 5.746 7.189-9.23 9.121-7.745 11.4 8.254 2.28-15.999 4.212-17.484 11.4-8.254-4.398-10.84-2.147-11.772 12.849-5.746-12.716-9.974-13.036-12.389-1.448-14-11.589-1.611-11.269-4.026 1.448-14ZM28.866 29.93c.456 1.577 1.45 3.328 2.99 5.677-2.348-1.538-4.1-2.533-5.678-2.99-1.153 2.237-1.526 4.013-1.93 9.501-.402-5.488-.776-7.264-1.93-9.5-1.575.455-3.328 1.45-5.676 2.989 1.539-2.348 2.533-4.1 2.99-5.677-2.237-1.154-4.013-1.528-9.501-1.93 5.488-.403 7.264-.777 9.5-1.93-.456-1.576-1.45-3.328-2.99-5.676 2.349 1.538 4.101 2.532 5.677 2.988 1.155-2.236 1.527-4.012 1.93-9.5.404 5.488.777 7.264 1.931 9.5 1.576-.455 3.329-1.45 5.676-2.988-1.538 2.347-2.533 4.1-2.988 5.676 2.236 1.154 4.012 1.527 9.5 1.93-5.488.403-7.264.777-9.5 1.93h-.001Z" fill="#000"/></svg>