<svg width="96" height="120" fill="none" xmlns="http://www.w3.org/2000/svg"><path fill="#000" d="M0 12h12v12H0zm0 24h12v12H0zm0 24h12v12H0zm0 24h12v12H0zm12-60h12v12H12zm0 24h12v12H12zm0 24h12v12H12zm12-60h12v12H24zm0 24h12v12H24zm0 24h12v12H24zm0 24h12v12H24zm12-60h12v12H36zm0 24h12v12H36zm0 24h12v12H36zm12-60h12v12H48zm0 24h12v12H48zm0 24h12v12H48zm0 24h12v12H48zm12-60h12v12H60zM12 0h12v12H12zm24 0h12v12H36zm24 0h12v12H60zm0 48h12v12H60zm0 24h12v12H60zm12-60h12v12H72zm0 24h12v12H72zm0 24h12v12H72zm0 24h12v12H72zm12-12h12v12H84zm0-72h12v12H84zm0 96h12v12H84zm0-72h12v12H84zm0 24h12v12H84zM0 108h12v12H0zm12-12h12v12H12zm12 12h12v12H24zm12-12h12v12H36zm12 12h12v12H48zm24 0h12v12H72zM60 96h12v12H60z"/></svg>