<svg width="16" height="16" fill="none" xmlns="http://www.w3.org/2000/svg"><path d="M4.252 9.948c-.017-.009-.045-.011-.045-.011l.045.01Z" fill="#000"/><path d="M16 8c0-4.411-3.589-8-8-8S0 3.589 0 8s3.589 8 8 8 8-3.589 8-8ZM.199 8c0-1.432.39-2.774 1.065-3.929.01.009.02.015.032.027.111.112.223.14.223.14h.195l.224-.028.14-.084.363-.028v-.084l.195-.028v.14l.28.279h.139l.167-.028v-.084l.447.028.391.208s.195-.04.391-.013c.196.028.28 0 .28 0l.055-.14c.056-.139.168-.195.223-.279.056-.083.224-.167.224-.167s.167-.195.223-.363c.056-.168 0 0 .028-.112s.168-.447.251-.502c.084-.056.224-.364.307-.447l.14-.141.14-.021s.14.05.251-.006c.112-.056.14.028.223 0a.294.294 0 0 1 .168 0l.223-.14.112-.055c.112-.056.195-.056.28-.168.083-.112.279-.195.322-.335.044-.14.46-.335.46-.335s.195-.056.362-.252c.168-.195 0-.195-.167-.335-.168-.14 0-.14 0-.14S8.329.489 8.36.412l.081-.2c.215.012.427.034.637.063V.32l.124.149h.125l.124.186H9.6v.187h.374l.123-.1h.422V.618h.001c.16.055.32.114.475.179-.007.024-.016.04-.028.045 0 0 1.937 1.788 2.087 3.08l.87.323s-.2 0 0 .125c.198.124-.05-.125.198.124.248.248.298.248.373.397.074.15.124.224.173.299.05.074.2.347.2.347v.125l-.175-.15-.149-.149-.149-.174-.075-.124-.173-.074-.174.074s0 .05.025.224.025.422.1.373c.074-.05.173.099.223.173l.05.075.099.199.149.298.248.224v.124l.274.149h.348l.124-.124s-.126.083.056-.199a7.81 7.81 0 0 1 .107 2.008c-.142-.028-.241-.033-.273-.003l-.098.095-.221.119-.049.19-.122.047-.172-.119.025-.237v-.669s-.074-.018-.148-.112c-.073-.095.02-.119-.1-.166-.12-.048-.316-.095-.316-.095l-.147.024-.098.165v.183c0 .078-.025.339-.025.339.147.07.392-.071.392-.071v-.143l.194.119v.26l-.218.166-.196.047h-.196l-.171-.094-.074-.166v-.237l-.122-.22-.197-.254-.196-.118c-.196-.118-.343-.213-.343-.213l-.196.024-.147.047c-.098-.166-.024.07-.098-.284l-.073-.356s-.025-.047-.074-.094c-.049-.048.196.023-.049-.048a1.817 1.817 0 0 1-.368-.142l-.147.19s-.122-.166-.147 0c-.024.165 0-.071-.024.165-.025.237 0 .45 0 .45l.171.119.22.237.221.166.147.112.098.196s.123.118.025.165c-.098.048-.392.024-.392.024l-.074.284V8.8s-.024.047-.073.118a.662.662 0 0 0-.074.214l.196.094.172.166s.024.095.024.166c0 .071-.073.19-.073.19l-.05.222v.583l.099.237-.074.118c-.196.071-.27.048-.343 0l-.073-.047s-.025-.024-.123-.237a3.088 3.088 0 0 1-.196-.758v-.095s.025-.047.05-.213c.024-.166.146-.45.146-.45l.098-.26V8.61s.025-.237.025-.379c0-.142-.05-.22-.05-.22l-.024-.111-.22-.332-.172-.284-.098-.143L11.059 7l-.163-.118-.294-.356-.122-.094-.708-.332h-.199l-.123-.142h-.343s-.612.118-.686 0c-.073-.119-.294 0-.294 0l-.158-.053-.332.31-.245.311-.417.688v.592s.123-.048.172.308l.049.355.049.166-.025.237-.024.142-.098.166-.123.308v.095h-.98l-.196.237h-.172v.094l-.294.143s-.196.047-.392 0l-.196-.048-.22-.07s-.123.047-.22.023l-.054-.013c.031.015.028.05-.241.129l-.417.121s-.098.023-.196 0a19.284 19.284 0 0 0-.465-.095l-.147.105h-.098v.108s-.074-.166-.074 0v.166l.123.166s.122 0 .22.213l.098.213.098.119.147.118s.196.166.27.26l.073.096s.025.047.196.19L4.01 12h.098l.367.26.22.119.497.142s.656.237.729.237h.27l.196.142s.563.07.686.095l.122.023s-.049.048.319.142l.368.095h.196s.049-.095.171 0l.123.095h.22l.343.024.123-.332.147-.213.098-.142.22-.19.248-.142c.071-.166-.002-.024.071-.166l.074-.142s.367-.308.44-.308h.074l.172-.024s.22.095 0 .237 0 .048-.22.142c-.221.095 0-.118-.221.095s.002.26.002.26.076.048 0 .143c-.076.095-.392.213-.392.213v.213s.003.048 0 .119c-.003.07 0 .142 0 .142s.243 0 .316.095c.074.095-.098.071.074.095.171.023.171.19.367 0 .196-.19.245-.284.343-.308.098-.024.032-.047.188-.119.155-.07.302-.189.351-.331.05-.143.025-.19.123-.26.098-.072.22-.238.22-.238l.123.048v.165s-.098.048-.147.119c-.049.071-.171.19-.171.19s-.025.165-.025.307c0 .143-.074-.023 0 .143.074.166.147.374.147.374l.024.265.172.095.27.119h.171s.397-.077.873-.22a7.774 7.774 0 0 1-4.224 1.923c.217-.286.188-.45-.729-.22-.439.11-.257-.372-.257-.372l-.389-.274-.433-.348H5.902v-.248h-.398l-.795-.298h-.814v.199l-.348.137-.07.037A7.8 7.8 0 0 1 .2 8Z" fill="#000"/><path d="M4.252 9.948c-.017-.009-.045-.011-.045-.011l.045.01Z" fill="#000"/><path d="M16 8c0-4.411-3.589-8-8-8S0 3.589 0 8s3.589 8 8 8 8-3.589 8-8ZM.199 8c0-1.432.39-2.774 1.065-3.929.01.009.02.015.032.027.111.112.223.14.223.14h.195l.224-.028.14-.084.363-.028v-.084l.195-.028v.14l.28.279h.139l.167-.028v-.084l.447.028.391.208s.195-.04.391-.013c.196.028.28 0 .28 0l.055-.14c.056-.139.168-.195.223-.279.056-.083.224-.167.224-.167s.167-.195.223-.363c.056-.168 0 0 .028-.112s.168-.447.251-.502c.084-.056.224-.364.307-.447l.14-.141.14-.021s.14.05.251-.006c.112-.056.14.028.223 0a.294.294 0 0 1 .168 0l.223-.14.112-.055c.112-.056.195-.056.28-.168.083-.112.279-.195.322-.335.044-.14.46-.335.46-.335s.195-.056.362-.252c.168-.195 0-.195-.167-.335-.168-.14 0-.14 0-.14S8.329.489 8.36.412l.081-.2c.215.012.427.034.637.063V.32l.124.149h.125l.124.186H9.6v.187h.374l.123-.1h.422V.618h.001c.16.055.32.114.475.179-.007.024-.016.04-.028.045 0 0 1.937 1.788 2.087 3.08l.87.323s-.2 0 0 .125c.198.124-.05-.125.198.124.248.248.298.248.373.397.074.15.124.224.173.299.05.074.2.347.2.347v.125l-.175-.15-.149-.149-.149-.174-.075-.124-.173-.074-.174.074s0 .05.025.224.025.422.1.373c.074-.05.173.099.223.173l.05.075.099.199.149.298.248.224v.124l.274.149h.348l.124-.124s-.126.083.056-.199a7.81 7.81 0 0 1 .107 2.008c-.142-.028-.241-.033-.273-.003l-.098.095-.221.119-.049.19-.122.047-.172-.119.025-.237v-.669s-.074-.018-.148-.112c-.073-.095.02-.119-.1-.166-.12-.048-.316-.095-.316-.095l-.147.024-.098.165v.183c0 .078-.025.339-.025.339.147.07.392-.071.392-.071v-.143l.194.119v.26l-.218.166-.196.047h-.196l-.171-.094-.074-.166v-.237l-.122-.22-.197-.254-.196-.118c-.196-.118-.343-.213-.343-.213l-.196.024-.147.047c-.098-.166-.024.07-.098-.284l-.073-.356s-.025-.047-.074-.094c-.049-.048.196.023-.049-.048a1.817 1.817 0 0 1-.368-.142l-.147.19s-.122-.166-.147 0c-.024.165 0-.071-.024.165-.025.237 0 .45 0 .45l.171.119.22.237.221.166.147.112.098.196s.123.118.025.165c-.098.048-.392.024-.392.024l-.074.284V8.8s-.024.047-.073.118a.662.662 0 0 0-.074.214l.196.094.172.166s.024.095.024.166c0 .071-.073.19-.073.19l-.05.222v.583l.099.237-.074.118c-.196.071-.27.048-.343 0l-.073-.047s-.025-.024-.123-.237a3.088 3.088 0 0 1-.196-.758v-.095s.025-.047.05-.213c.024-.166.146-.45.146-.45l.098-.26V8.61s.025-.237.025-.379c0-.142-.05-.22-.05-.22l-.024-.111-.22-.332-.172-.284-.098-.143L11.059 7l-.163-.118-.294-.356-.122-.094-.708-.332h-.199l-.123-.142h-.343s-.612.118-.686 0c-.073-.119-.294 0-.294 0l-.158-.053-.332.31-.245.311-.417.688v.592s.123-.048.172.308l.049.355.049.166-.025.237-.024.142-.098.166-.123.308v.095h-.98l-.196.237h-.172v.094l-.294.143s-.196.047-.392 0l-.196-.048-.22-.07s-.123.047-.22.023l-.054-.013c.031.015.028.05-.241.129l-.417.121s-.098.023-.196 0a19.284 19.284 0 0 0-.465-.095l-.147.105h-.098v.108s-.074-.166-.074 0v.166l.123.166s.122 0 .22.213l.098.213.098.119.147.118s.196.166.27.26l.073.096s.025.047.196.19L4.01 12h.098l.367.26.22.119.497.142s.656.237.729.237h.27l.196.142s.563.07.686.095l.122.023s-.049.048.319.142l.368.095h.196s.049-.095.171 0l.123.095h.22l.343.024.123-.332.147-.213.098-.142.22-.19.248-.142c.071-.166-.002-.024.071-.166l.074-.142s.367-.308.44-.308h.074l.172-.024s.22.095 0 .237 0 .048-.22.142c-.221.095 0-.118-.221.095s.002.26.002.26.076.048 0 .143c-.076.095-.392.213-.392.213v.213s.003.048 0 .119c-.003.07 0 .142 0 .142s.243 0 .316.095c.074.095-.098.071.074.095.171.023.171.19.367 0 .196-.19.245-.284.343-.308.098-.024.032-.047.188-.119.155-.07.302-.189.351-.331.05-.143.025-.19.123-.26.098-.072.22-.238.22-.238l.123.048v.165s-.098.048-.147.119c-.049.071-.171.19-.171.19s-.025.165-.025.307c0 .143-.074-.023 0 .143.074.166.147.374.147.374l.024.265.172.095.27.119h.171s.397-.077.873-.22a7.774 7.774 0 0 1-4.224 1.923c.217-.286.188-.45-.729-.22-.439.11-.257-.372-.257-.372l-.389-.274-.433-.348H5.902v-.248h-.398l-.795-.298h-.814v.199l-.348.137-.07.037A7.8 7.8 0 0 1 .2 8Z" fill="#000"/></svg>