<svg width="24" height="24" fill="none" xmlns="http://www.w3.org/2000/svg"><path d="M0 20.774C0 22.548 1.425 24 3.166 24c1.552 0 2.85-1.161 3.103-2.677h11.462C17.984 22.839 19.282 24 20.834 24 22.575 24 24 22.549 24 20.774c0-1.677-1.267-3.032-2.85-3.193V6.419C22.735 6.26 24 4.871 24 3.226 24 1.452 22.575 0 20.834 0c-1.552 0-2.85 1.161-3.103 2.677H6.301C6.048 1.161 4.749 0 3.198 0 1.457 0 .032 1.452.032 3.226c0 1.677 1.266 3.032 2.85 3.193v11.162A3.223 3.223 0 0 0 0 20.774ZM6.332 3.29h11.399c.031 1.613 1.266 2.968 2.85 3.13v11.16c-1.584.162-2.787 1.485-2.85 3.13H6.332c-.031-1.613-1.266-2.968-2.849-3.13V6.42a3.184 3.184 0 0 0 2.85-3.13ZM3.166 23.355c-1.393 0-2.533-1.161-2.533-2.58 0-1.42 1.14-2.581 2.533-2.581s2.533 1.16 2.533 2.58c0 1.42-1.108 2.58-2.533 2.58Zm20.264-2.58c0 1.419-1.14 2.58-2.533 2.58s-2.533-1.161-2.533-2.58c0-1.42 1.14-2.581 2.533-2.581s2.533 1.16 2.533 2.58ZM20.897.644c1.393 0 2.533 1.161 2.533 2.58 0 1.42-1.14 2.582-2.533 2.582s-2.533-1.162-2.533-2.581c0-1.42 1.108-2.58 2.533-2.58ZM.633 3.225c0-1.419 1.14-2.58 2.533-2.58S5.7 1.806 5.7 3.225c0 1.42-1.14 2.582-2.533 2.582S.633 4.645.633 3.226Z" fill="#000"/><path d="M.633 3.226c0-1.42 1.14-2.58 2.533-2.58S5.7 1.805 5.7 3.225c0 1.42-1.14 2.58-2.533 2.58S.633 4.647.633 3.227ZM20.897.645c1.393 0 2.533 1.161 2.533 2.58 0 1.42-1.14 2.582-2.533 2.582s-2.533-1.162-2.533-2.581c0-1.42 1.108-2.58 2.533-2.58Zm2.533 20.129c0 1.42-1.14 2.58-2.533 2.58s-2.533-1.16-2.533-2.58c0-1.42 1.14-2.58 2.533-2.58s2.533 1.16 2.533 2.58ZM3.166 23.355c-1.393 0-2.533-1.161-2.533-2.58 0-1.42 1.14-2.581 2.533-2.581s2.533 1.16 2.533 2.58c0 1.42-1.108 2.58-2.533 2.58Z" fill="#000"/></svg>