<svg width="551" height="592" fill="none" xmlns="http://www.w3.org/2000/svg"><path d="M550.5 126.5c0 19.99-6.095 39.35-17.498 57.709-6.101-19.081-16.716-38.461-31.308-57.709 14.592-19.248 25.207-38.628 31.308-57.709C544.405 87.151 550.5 106.51 550.5 126.5Zm-49.433.825c14.656 19.376 25.243 38.857 31.236 57.998-10.743 16.938-26.01 33.014-45.182 47.936-7.748-18.81-18.225-38.251-31.192-57.992 17.634-15.712 32.786-31.778 45.138-47.942Zm-13.553 106.894c19.075-14.815 34.344-30.788 45.176-47.639 6.263 20.685 7.139 40.963 1.965 60.271-5.173 19.308-16.071 36.43-31.837 51.213-.955-20.01-6.192-41.477-15.304-63.845Zm-32.34-58.28c12.968 19.756 23.419 39.183 31.128 57.955-16.062 12.403-34.827 24.001-55.936 34.627a459.742 459.742 0 0 0-5.511-15.583c-4.89-13.089-10.532-26.458-16.9-40.036 12.304-8.576 23.875-17.332 34.654-26.222a461.426 461.426 0 0 0 12.565-10.741Zm-31.255 77.349a460.8 460.8 0 0 1 5.544 15.686 459.434 459.434 0 0 1-15.012 7.172c-12.64 5.764-26.004 11.197-40.025 16.27-2.982-16.53-6.772-33.546-11.361-50.945 15.547-9.057 30.26-18.41 44.057-27.99 6.327 13.502 11.935 26.794 16.797 39.807Zm-49.314 40.127c14.105-5.099 27.548-10.562 40.261-16.359a460.429 460.429 0 0 0 14.915-7.123c7.413 22.44 12.48 43.91 15.067 64.037-18.724 7.823-39.851 14.169-62.991 18.97a458.987 458.987 0 0 0-1.289-16.479c-1.336-13.908-3.326-28.281-5.963-43.046Zm-12.437-51.422c4.567 17.339 8.338 34.297 11.304 50.768-15.748 5.667-32.319 10.879-49.618 15.595a769.093 769.093 0 0 0-1.231-44.952 768.736 768.736 0 0 0 39.545-21.411Zm-38.318 67.4c17.362-4.725 33.994-9.951 49.8-15.634 2.618 14.679 4.594 28.97 5.922 42.798.539 5.607.971 11.138 1.296 16.587a463.109 463.109 0 0 1-16.358 3.042c-13.7 2.296-28.015 4.085-42.872 5.356 1.398-16.738 2.142-34.156 2.212-52.149Zm-2.201-45.498a768.261 768.261 0 0 1 1.204 44.733 766.62 766.62 0 0 1-43.52 10.414 851.42 851.42 0 0 0 7.035-38.41 851.495 851.495 0 0 0 35.281-16.737ZM279.11 320.11a768.305 768.305 0 0 0 43.739-10.445c-.077 17.93-.823 35.286-2.222 51.963-16.677 1.398-34.032 2.144-51.962 2.222a768.342 768.342 0 0 0 10.445-43.74Zm6.168-38.992a850.404 850.404 0 0 1-7.013 38.147 850.404 850.404 0 0 1-38.147 7.013 912.989 912.989 0 0 0 13.417-31.742 912.229 912.229 0 0 0 31.743-13.418Zm-45.647 46.25a851.209 851.209 0 0 0 38.411-7.035 767.477 767.477 0 0 1-10.414 43.52 766.532 766.532 0 0 1-44.734-1.204 851.495 851.495 0 0 0 16.737-35.281Zm12.62-32.319a908.208 908.208 0 0 1-13.312 31.417 911.502 911.502 0 0 1-33.792 4.728 959.724 959.724 0 0 0 18.138-25.128 959.084 959.084 0 0 0 28.966-11.017Zm-47.932 37.252a911.9 911.9 0 0 0 34.133-4.745 849.702 849.702 0 0 1-16.647 35.032 849.726 849.726 0 0 1-38.662-3.099 914.388 914.388 0 0 0 21.176-27.188Zm17.335-25.646a957.587 957.587 0 0 1-17.879 24.704 956.468 956.468 0 0 1-30.333 3.131 996.69 996.69 0 0 0 21.395-18.613 996.086 996.086 0 0 0 26.817-9.222Zm-49.538 28.954a960.267 960.267 0 0 0 30.83-3.145 911.586 911.586 0 0 1-20.99 26.902 912.27 912.27 0 0 1-33.864-4.18 958.28 958.28 0 0 0 24.024-19.577Zm20.354-18.959a988.272 988.272 0 0 1-20.756 17.989 990.177 990.177 0 0 1-27.398 1.957c7.716-3.928 15.44-7.986 23.166-12.172a1022.573 1022.573 0 0 0 24.988-7.774Zm-50.374 21.072a991.905 991.905 0 0 0 28.291-1.967 954.663 954.663 0 0 1-23.663 19.235 955.097 955.097 0 0 1-30.111-4.826 989.848 989.848 0 0 0 25.483-12.442Zm20.737-11.929a1007.01 1007.01 0 0 1-21.001 10.942c-7.828.431-15.716.773-23.659 1.025a1042.199 1042.199 0 0 0 44.66-11.967Zm-49.37 13.105c8.783-.237 17.501-.585 26.147-1.041a989.85 989.85 0 0 1-24.704 12.004 987.706 987.706 0 0 1-26.97-5.201c8.47-1.798 16.981-3.718 25.527-5.762Zm26.848-7.839a1032.629 1032.629 0 0 1-26.98 6.842 1033.712 1033.712 0 0 1-55.663 0 1037.35 1037.35 0 0 1-53.764-14.406 1035.956 1035.956 0 0 1-48.21-27.834 1033.954 1033.954 0 0 1-19.942-19.414 1033.831 1033.831 0 0 1-19.415-19.943 1033.357 1033.357 0 0 1-14.24-23.917 1035.354 1035.354 0 0 1-13.593-24.29c-2.622-8.83-5.145-17.76-7.563-26.786a1033.443 1033.443 0 0 1-6.842-26.977 1033.947 1033.947 0 0 1 0-55.667 1033.32 1033.32 0 0 1 14.406-53.764A1035.151 1035.151 0 0 1-83.664-3.302a1034.54 1034.54 0 0 1 39.362-39.363 1034.991 1034.991 0 0 1 48.203-27.83A1034.663 1034.663 0 0 1 57.668-84.9a1035.076 1035.076 0 0 1 55.663 0A1035.68 1035.68 0 0 1 167.1-70.494a1035.725 1035.725 0 0 1 48.201 27.829 1037.035 1037.035 0 0 1 39.362 39.362A1035.82 1035.82 0 0 1 282.494 44.9a1038.726 1038.726 0 0 1 14.407 53.77 1033.617 1033.617 0 0 1 0 55.659 1033.75 1033.75 0 0 1-6.843 26.981 1030.86 1030.86 0 0 1-7.564 26.788 1035.38 1035.38 0 0 1-27.832 48.206 1035.693 1035.693 0 0 1-39.357 39.357 1035.543 1035.543 0 0 1-48.208 27.833 1037.55 1037.55 0 0 1-26.786 7.564Zm-77.93 7.959a1041.872 1041.872 0 0 0 46.237 0 1014.343 1014.343 0 0 1-23.118 5.134 1014.327 1014.327 0 0 1-23.118-5.134Zm-31.951-6.993a1042.501 1042.501 0 0 0 22.397 5.735c-7.943-.252-15.83-.594-23.659-1.025a1008.864 1008.864 0 0 1-21-10.942 1042.722 1042.722 0 0 0 22.262 6.232Zm.96 5.832c8.646.456 17.364.804 26.147 1.041a1022.731 1022.731 0 0 0 25.527 5.762 988.02 988.02 0 0 1-26.97 5.201 989.368 989.368 0 0 1-24.704-12.004ZM3.52 324.424a1019.197 1019.197 0 0 0 23.164 12.172 990.35 990.35 0 0 1-27.399-1.957A989.673 989.673 0 0 1-21.47 316.65a1017.847 1017.847 0 0 0 24.99 7.774Zm-27.357-8.547A994.107 994.107 0 0 0-2.442 334.49a956.377 956.377 0 0 1-30.333-3.131 957.164 957.164 0 0 1-17.88-24.704 995.852 995.852 0 0 0 26.818 9.222Zm-8.11 16.587a960.26 960.26 0 0 0 30.83 3.145 958.3 958.3 0 0 0 24.025 19.577 912.276 912.276 0 0 1-33.864 4.18 910.917 910.917 0 0 1-20.99-26.902Zm-20.339-26.398a959.266 959.266 0 0 0 18.139 25.128 911.362 911.362 0 0 1-33.793-4.728 910.807 910.807 0 0 1-13.313-31.417 960.562 960.562 0 0 0 28.967 11.017Zm-15.167 21.49a911.841 911.841 0 0 0 34.134 4.745 914.044 914.044 0 0 0 21.175 27.188 849.632 849.632 0 0 1-38.662 3.099 849.44 849.44 0 0 1-16.647-35.032Zm-15.083-33.021a912.42 912.42 0 0 0 13.417 31.743 850.332 850.332 0 0 1-38.146-7.013 850.404 850.404 0 0 1-7.013-38.147 910.803 910.803 0 0 0 31.742 13.417Zm-24.506 25.798a851.226 851.226 0 0 0 38.41 7.035 851.11 851.11 0 0 0 16.737 35.281 766.5 766.5 0 0 1-44.733 1.204 766.62 766.62 0 0 1-10.414-43.52Zm-8.326-39.701a851.163 851.163 0 0 0 7.035 38.41 767.72 767.72 0 0 1-43.521-10.414 768.295 768.295 0 0 1 1.204-44.734 850.869 850.869 0 0 0 35.282 16.738Zm-36.482 29.033c14.117 3.82 28.714 7.309 43.739 10.445a768.93 768.93 0 0 0 10.446 43.74c-17.93-.078-35.286-.824-51.963-2.222-1.398-16.678-2.145-34.033-2.222-51.963Zm.226-46.262c-.86 15.325-1.267 30.328-1.23 44.953-17.3-4.716-33.871-9.929-49.618-15.596 2.966-16.47 6.737-33.428 11.303-50.767 12.647 7.344 25.843 14.492 39.545 21.41Zm-51.027 30.356c15.806 5.683 32.438 10.909 49.8 15.634.07 17.993.814 35.411 2.212 52.149-14.857-1.271-29.172-3.06-42.872-5.356a462.625 462.625 0 0 1-16.357-3.042c.325-5.449.757-10.98 1.295-16.587 1.328-13.828 3.305-28.119 5.922-42.798Zm10.585-52.288c-4.588 17.399-8.379 34.415-11.36 50.945-14.021-5.073-27.386-10.506-40.025-16.27a459.434 459.434 0 0 1-15.012-7.172 460.8 460.8 0 0 1 5.544-15.686c4.862-13.013 10.47-26.305 16.797-39.807 13.797 9.58 28.509 18.933 44.056 27.99Zm-66.715 28.462a460.429 460.429 0 0 0 14.915 7.123c12.713 5.797 26.156 11.26 40.261 16.359-2.637 14.764-4.627 29.138-5.963 43.046a461.333 461.333 0 0 0-1.29 16.479c-23.139-4.801-44.266-11.147-62.991-18.97 2.588-20.127 7.655-41.597 15.068-64.037Zm4.926-16.995a459.742 459.742 0 0 0-5.511 15.583c-21.109-10.626-39.874-22.224-55.936-34.627 7.709-18.771 18.16-38.198 31.128-57.955 4.059 3.6 8.248 7.181 12.564 10.741 10.779 8.89 22.35 17.646 34.655 26.222-6.368 13.579-12.01 26.947-16.9 40.036Zm-61.839-18.085c16.115 12.417 34.909 24.014 56.01 34.627-7.416 22.425-12.505 43.914-15.119 64.089-22.382-9.452-41.291-21.029-56.052-34.61.835-20.04 6.019-41.597 15.161-64.106Zm30.765-59.585c-12.967 19.741-23.444 39.181-31.192 57.992-19.172-14.923-34.439-30.999-45.182-47.937 5.993-19.142 16.579-38.622 31.236-57.998 12.352 16.164 27.504 32.23 45.138 47.943Zm-76.761 11.311c10.832 16.852 26.101 32.825 45.177 47.64-9.113 22.368-14.35 43.835-15.305 63.845-15.767-14.783-26.664-31.905-31.838-51.213-5.173-19.309-4.297-39.586 1.966-60.272ZM-379.5 126.5c0-19.989 6.094-39.35 17.498-57.709 6.101 19.081 16.716 38.462 31.307 57.709-14.591 19.248-25.206 38.628-31.307 57.709-11.404-18.36-17.498-37.719-17.498-57.709Zm49.433-.825c-14.657-19.376-25.243-38.856-31.236-57.997 10.743-16.939 26.011-33.016 45.183-47.938 7.748 18.81 18.225 38.25 31.192 57.992-17.635 15.712-32.787 31.779-45.139 47.943Zm45.894-48.615c-12.968-19.756-23.419-39.183-31.128-57.955 16.062-12.402 34.826-24 55.934-34.626A461.961 461.961 0 0 0-253.856.062c4.89 13.089 10.532 26.458 16.901 40.037-12.305 8.575-23.876 17.332-34.655 26.221a461.746 461.746 0 0 0-12.563 10.74Zm31.254-77.348a458.587 458.587 0 0 1-5.545-15.686 460.897 460.897 0 0 1 15.013-7.172c12.639-5.764 26.004-11.197 40.025-16.27 2.981 16.53 6.772 33.546 11.36 50.945-15.547 9.058-30.26 18.41-44.056 27.99-6.328-13.502-11.936-26.794-16.797-39.807Zm49.314-40.127c-14.105 5.099-27.548 10.562-40.261 16.36a461.12 461.12 0 0 0-14.916 7.122c-7.412-22.44-12.48-43.91-15.067-64.037 18.724-7.823 39.852-14.17 62.991-18.97.325 5.416.755 10.91 1.29 16.479 1.336 13.908 3.326 28.282 5.963 43.046Zm12.436 51.422c-4.566-17.34-8.337-34.296-11.303-50.767 15.747-5.667 32.318-10.88 49.617-15.596a769.116 769.116 0 0 0 1.231 44.953 768.88 768.88 0 0 0-39.545 21.41Zm38.318-67.4c-17.362 4.725-33.994 9.951-49.8 15.634-2.617-14.68-4.594-28.97-5.922-42.798a461.347 461.347 0 0 1-1.295-16.587 460.356 460.356 0 0 1 16.357-3.042c13.7-2.296 28.015-4.085 42.872-5.356-1.399 16.738-2.142 34.156-2.212 52.15Zm2.201 45.499c-.847-15.251-1.246-30.18-1.204-44.733a767.337 767.337 0 0 1 43.521-10.415 851.396 851.396 0 0 0-7.035 38.41 851.64 851.64 0 0 0-35.282 16.738Zm42.539-56.217c-15.025 3.137-29.622 6.626-43.739 10.447.077-17.931.823-35.287 2.221-51.964 16.678-1.398 34.034-2.144 51.964-2.222a769.096 769.096 0 0 0-10.446 43.74Zm-6.167 38.993a850.386 850.386 0 0 1 7.013-38.147 849.474 849.474 0 0 1 38.146-7.013 912.151 912.151 0 0 0-13.417 31.743 912.865 912.865 0 0 0-31.742 13.416Zm45.646-46.25a851.255 851.255 0 0 0-38.41 7.035 767.069 767.069 0 0 1 10.414-43.52 766.502 766.502 0 0 1 44.733 1.204 851.219 851.219 0 0 0-16.737 35.28Zm-12.62 32.32A910.294 910.294 0 0 1-67.94-73.467a910.27 910.27 0 0 1 33.793-4.728 957.688 957.688 0 0 0-18.139 25.128A957.608 957.608 0 0 0-81.252-42.05Zm47.933-37.253a912.674 912.674 0 0 0-34.134 4.745 849.43 849.43 0 0 1 16.647-35.032 849.65 849.65 0 0 1 38.662 3.099 912.994 912.994 0 0 0-21.175 27.188Zm-17.335 25.646a955.36 955.36 0 0 1 17.879-24.704A955.542 955.542 0 0 1-2.441-81.49a991.885 991.885 0 0 0-21.395 18.613 991.96 991.96 0 0 0-26.818 9.222Zm49.539-28.954a958.027 958.027 0 0 0-30.832 3.145 910.643 910.643 0 0 1 20.99-26.902 912.31 912.31 0 0 1 33.865 4.18A958.665 958.665 0 0 0-1.115-82.609ZM-21.47-63.65A989.352 989.352 0 0 1-.714-81.64a989.044 989.044 0 0 1 27.396-1.956A1017.324 1017.324 0 0 0 3.516-71.422 1017.542 1017.542 0 0 0-21.47-63.65Zm50.373-21.072a991.847 991.847 0 0 0-28.29 1.967 955.26 955.26 0 0 1 23.663-19.235 956.781 956.781 0 0 1 30.11 4.826 992.359 992.359 0 0 0-25.484 12.442ZM8.165-72.792a1013.627 1013.627 0 0 1 21.002-10.943c7.828-.431 15.716-.773 23.66-1.025A1037.913 1037.913 0 0 0 8.164-72.793Zm49.372-13.106c-8.784.237-17.502.585-26.148 1.041A989.241 989.241 0 0 1 56.093-96.86a988.853 988.853 0 0 1 26.97 5.201 1017.72 1017.72 0 0 0-25.526 5.762Zm27.963-.377c-7.752 0-15.46.087-23.119.257A1014.004 1014.004 0 0 1 85.5-91.152c7.673 1.61 15.381 3.321 23.118 5.134-7.659-.17-15.366-.257-23.118-.257Zm27.963.377a1017.598 1017.598 0 0 0-25.527-5.762 989.235 989.235 0 0 1 26.971-5.201 991.296 991.296 0 0 1 24.705 12.005c-8.647-.457-17.365-.805-26.149-1.042Zm28.635 1.176a992.2 992.2 0 0 0-25.484-12.442 953.813 953.813 0 0 1 30.109-4.826 954.197 954.197 0 0 1 23.664 19.235 992.129 992.129 0 0 0-28.289-1.967Zm30.017 2.113a958.302 958.302 0 0 0-24.024-19.577 912.321 912.321 0 0 1 33.865-4.18 911.307 911.307 0 0 1 20.99 26.902 958.053 958.053 0 0 0-30.831-3.145Zm9.088-24.683a912.494 912.494 0 0 0-34.198 4.251 912.545 912.545 0 0 0-27.491-20.781 849.258 849.258 0 0 1 36.543-13 849.68 849.68 0 0 1 25.146 29.53Zm23.116 27.991a913.372 913.372 0 0 0-21.176-27.188 849.612 849.612 0 0 1 38.662-3.099 851.056 851.056 0 0 1 16.647 35.032 912.324 912.324 0 0 0-34.133-4.745Zm16.995-31.261a851.819 851.819 0 0 0-38.923 3.146 850.625 850.625 0 0 0-25.299-29.747c14.512-4.766 28.83-9.015 42.898-12.741a768.494 768.494 0 0 1 21.324 39.342Zm18.317 36.194a851.594 851.594 0 0 0-16.737-35.281 766.532 766.532 0 0 1 44.734-1.204 767.307 767.307 0 0 1 10.414 43.52 851.341 851.341 0 0 0-38.411-7.035Zm27.725-37.486c-14.625-.037-29.628.371-44.953 1.231a769.19 769.19 0 0 0-21.411-39.546c17.34-4.566 34.297-8.337 50.769-11.303 5.666 15.747 10.879 32.318 15.595 49.618Zm11.754 44.743a768.466 768.466 0 0 0-10.445-43.739c17.93.077 35.285.824 51.963 2.222 1.398 16.677 2.144 34.033 2.221 51.963A768.983 768.983 0 0 0 279.11-67.11Zm41.432-42.528c-16.738-1.398-34.156-2.141-52.149-2.212-4.725-17.362-9.951-33.994-15.634-49.8 14.679-2.617 28.97-4.593 42.797-5.922 5.608-.538 11.138-.97 16.587-1.295a458.11 458.11 0 0 1 3.042 16.357c2.296 13.7 4.086 28.016 5.357 42.872Zm3.308 53.246c-.07-17.993-.813-35.411-2.212-52.149 14.857 1.271 29.172 3.06 42.873 5.356 5.556.931 11.01 1.946 16.357 3.042a459.087 459.087 0 0 1-1.296 16.587c-1.328 13.828-3.304 28.119-5.922 42.798-15.806-5.683-32.438-10.909-49.8-15.634Zm57.077-44.76a461.934 461.934 0 0 0-16.251-3.019c-13.78-2.309-28.179-4.107-43.123-5.381-1.274-14.944-3.072-29.343-5.382-43.123a459.643 459.643 0 0 0-3.019-16.251c23.594-1.352 45.644-.69 65.755 2.02 2.71 20.111 3.372 42.161 2.02 65.754Zm-.359 17.692c.535-5.569.965-11.063 1.289-16.479 23.14 4.8 44.268 11.147 62.992 18.97-2.588 20.127-7.655 41.597-15.067 64.037a461.12 461.12 0 0 0-14.916-7.123c-12.713-5.797-26.156-11.26-40.261-16.359 2.637-14.764 4.627-29.138 5.963-43.046Zm64.411 1.463c-18.779-7.822-39.935-14.16-63.062-18.951 1.358-23.579.712-45.654-1.984-65.818 24.065 3.337 45.326 9.626 63.099 18.924 4.38 19.573 4.952 41.737 1.947 65.845ZM430.685-16.48c7.415-22.424 12.504-43.914 15.119-64.09 22.381 9.453 41.289 21.03 56.049 34.61-.834 20.04-6.018 41.597-15.16 64.106C470.578 5.73 451.784-5.867 430.685-16.48Zm71.217-30.794c-14.824-13.474-33.707-24.95-55.967-34.323 3.013-23.965 2.516-46.056-1.741-65.631 19.055 10.198 34.013 23.917 44.007 41.228 9.995 17.311 14.397 37.124 13.701 58.726Zm-14.39 66.054c9.113-22.368 14.35-43.835 15.305-63.845 15.767 14.782 26.665 31.905 31.839 51.214 5.173 19.308 4.297 39.586-1.966 60.272-10.832-16.852-26.101-32.825-45.178-47.64Zm-.818 216.073c9.142 22.509 14.326 44.066 15.161 64.105-14.761 13.581-33.67 25.159-56.052 34.611-2.614-20.175-7.703-41.664-15.119-64.089 21.1-10.613 39.895-22.21 56.01-34.627ZM381.917 353.949c23.127-4.791 44.282-11.129 63.062-18.951 3.005 24.109 2.433 46.273-1.948 65.846-17.773 9.297-39.033 15.586-63.098 18.923 2.696-20.164 3.342-42.239 1.984-65.818ZM488.203 359c-9.995 17.312-24.954 31.031-44.01 41.229 4.257-19.575 4.754-41.667 1.742-65.632 22.26-9.373 41.144-20.85 55.968-34.325.696 21.603-3.706 41.416-13.7 58.728Zm-108.409 61.794c23.927-3.292 45.137-9.49 62.944-18.668-4.919 21.045-14.299 39.044-28.434 53.179-14.134 14.134-32.133 23.514-53.179 28.433 9.178-17.806 15.376-39.016 18.669-62.944Zm-1.027.139c-3.337 24.065-9.626 45.326-18.924 63.098-19.573 4.381-41.737 4.953-65.846 1.948 7.823-18.779 14.161-39.935 18.951-63.062 23.58 1.358 45.655.712 65.819-1.984Zm-66.828 1.924c-4.8 23.14-11.147 44.267-18.969 62.992-20.127-2.588-41.597-7.655-64.037-15.068a459.428 459.428 0 0 0 7.123-14.915c5.797-12.713 11.26-26.156 16.359-40.261 14.765 2.637 29.139 4.627 43.047 5.963a458.88 458.88 0 0 0 16.477 1.289Zm-83.459 48.828c22.424 7.415 43.914 12.504 64.088 15.119-9.451 22.381-21.029 41.29-34.609 56.05-20.04-.834-41.597-6.018-64.106-15.161 12.417-16.114 24.014-34.908 34.627-56.008Zm6.666-16.234a460.483 460.483 0 0 1-7.172 15.013 460.886 460.886 0 0 1-15.687-5.545c-13.013-4.862-26.305-10.469-39.807-16.797 9.581-13.797 18.933-28.509 27.991-44.057 17.399 4.589 34.415 8.379 50.945 11.361-5.073 14.021-10.506 27.385-16.27 40.025ZM199.468 403.8c-9.032 15.489-18.356 30.147-27.906 43.891-15.142-7.128-30.545-15.159-46.112-24.058 10.367-10.315 20.688-21.212 30.916-32.656 14.581 4.796 28.967 9.073 43.102 12.823Zm-44.138-13.165c-10.185 11.383-20.46 22.222-30.78 32.483-12.624-7.24-25.354-15.05-38.138-23.409a852.053 852.053 0 0 0 32.136-22.186 852.682 852.682 0 0 0 36.782 13.112Zm-69.83 9.672a769.374 769.374 0 0 0 38.314 23.542c-12.733 12.624-25.533 24.368-38.314 35.172-12.781-10.804-25.581-22.548-38.315-35.172 12.684-7.281 25.473-15.135 38.315-23.542Zm31.933-23.211A849.109 849.109 0 0 1 85.5 399.111a848.938 848.938 0 0 1-31.933-22.015A913.49 913.49 0 0 0 85.5 364.138a915.117 915.117 0 0 0 31.933 12.958ZM84.23 363.593a910.345 910.345 0 0 1-31.63 12.803 912.313 912.313 0 0 1-27.237-20.552 959.621 959.621 0 0 0 30.595-4.943 956.279 956.279 0 0 0 28.272 12.692Zm-60.236-7.552a913.294 913.294 0 0 0 27.491 20.781 849.47 849.47 0 0 1-36.542 13 849.578 849.578 0 0 1-25.147-29.53 912.644 912.644 0 0 0 34.198-4.251Zm-74.309 7.521a851.896 851.896 0 0 0 38.923-3.146 851.321 851.321 0 0 0 25.299 29.747c-14.512 4.766-28.83 9.015-42.898 12.741a767.794 767.794 0 0 1-21.324-39.342Zm21.846 40.238a768.89 768.89 0 0 0 43.102-12.823c10.229 11.444 20.55 22.341 30.916 32.656-15.566 8.899-30.97 16.93-46.112 24.058-9.55-13.744-18.874-28.401-27.906-43.891Zm113.057-4.091a767.325 767.325 0 0 1-38.139 23.409 766.816 766.816 0 0 1-30.78-32.483 850.873 850.873 0 0 0 36.783-13.112 852.458 852.458 0 0 0 32.136 22.186ZM.016 448.523c15.195-7.158 30.651-15.223 46.27-24.159 12.772 12.674 25.614 24.464 38.439 35.311-11.404 9.607-22.792 18.464-34.103 26.528a460.555 460.555 0 0 1-13.718 9.415 458.584 458.584 0 0 1-10.813-12.645c-8.838-10.716-17.546-22.219-26.075-34.45Zm51.186 38.494c11.377-8.111 22.83-17.021 34.298-26.687 11.468 9.666 22.921 18.576 34.297 26.687a461.363 461.363 0 0 0 13.627 9.356c-15.728 17.639-31.788 32.763-47.925 45.067-16.136-12.304-32.196-27.427-47.923-45.067a461.608 461.608 0 0 0 13.626-9.356Zm93.706-4.044a461.82 461.82 0 0 1-10.813 12.645 461.066 461.066 0 0 1-13.717-9.415c-11.311-8.064-22.699-16.921-34.103-26.528 12.825-10.847 25.666-22.637 38.439-35.311 15.618 8.936 31.074 17.001 46.269 24.159-8.529 12.231-17.237 23.733-26.075 34.45Zm-9.969 13.2a459.58 459.58 0 0 0 10.74-12.564c8.89-10.779 17.647-22.349 26.222-34.654 13.579 6.368 26.948 12.011 40.036 16.901a460.52 460.52 0 0 0 15.584 5.51c-10.626 21.109-22.224 39.874-34.627 55.936-18.771-7.709-38.199-18.161-57.955-31.129Zm-48.615 45.894c16.165-12.352 32.231-27.504 47.944-45.138 19.741 12.966 39.181 23.444 57.992 31.191-14.923 19.173-30.999 34.44-47.938 45.183-19.141-5.993-38.621-16.579-57.998-31.236Zm59.255 31.623c16.852-10.832 32.825-26.101 47.64-45.177 22.368 9.113 43.835 14.35 63.845 15.304-14.783 15.767-31.905 26.665-51.214 31.839-19.308 5.173-39.585 4.297-60.271-1.966Zm-60.08-30.995c19.248 14.591 38.629 25.206 57.71 31.307-18.36 11.404-37.72 17.498-57.71 17.498-19.989 0-39.348-6.095-57.708-17.498 19.08-6.101 38.461-16.716 57.709-31.307Zm-.824-.628c-19.376 14.657-38.857 25.243-57.998 31.236C9.74 562.56-6.338 547.292-21.26 528.12c18.81-7.747 38.25-18.225 57.992-31.191 15.712 17.634 31.778 32.786 47.943 45.138ZM-22.22 528.513c14.815 19.076 30.788 34.345 47.64 45.177-20.686 6.263-40.964 7.139-60.272 1.966-19.309-5.174-36.431-16.072-51.214-31.839 20.01-.954 41.477-6.191 63.846-15.304Zm58.28-32.339c-19.757 12.967-39.184 23.419-57.956 31.128-12.402-16.062-24-34.827-34.626-55.936a459.736 459.736 0 0 0 15.584-5.51c13.088-4.89 26.456-10.533 40.035-16.901 8.575 12.305 17.332 23.876 26.222 34.654 3.56 4.316 7.14 8.506 10.74 12.565Zm-93.541-24.489c10.613 21.099 22.21 39.894 34.627 56.008-22.51 9.143-44.067 14.327-64.107 15.161-13.58-14.76-25.158-33.669-34.609-56.05 20.174-2.615 41.664-7.704 64.089-15.119Zm16.193-6.766a458.68 458.68 0 0 1-15.687 5.544 459.847 459.847 0 0 1-7.172-15.012c-5.764-12.64-11.197-26.004-16.27-40.025 16.53-2.982 33.546-6.772 50.944-11.361 9.058 15.548 18.41 30.261 27.99 44.057-13.5 6.328-26.793 11.935-39.805 16.797Zm-40.128-49.314c5.099 14.105 10.562 27.548 16.36 40.261a460.055 460.055 0 0 0 7.122 14.915c-22.44 7.413-43.91 12.48-64.037 15.068-7.823-18.725-14.17-39.852-18.97-62.992 5.415-.324 10.91-.754 16.478-1.289 13.908-1.336 28.282-3.326 43.047-5.963Zm51.422-12.436c-17.34 4.566-34.297 8.337-50.768 11.303-5.667-15.748-10.88-32.318-15.595-49.618a769.1 769.1 0 0 0 44.952-1.231 769.54 769.54 0 0 0 21.41 39.546Zm-67.4-38.318c4.725 17.362 9.951 33.994 15.634 49.8-14.68 2.617-28.97 4.594-42.798 5.922-5.608.538-11.138.97-16.587 1.295a458.11 458.11 0 0 1-3.042-16.357c-2.296-13.701-4.086-28.016-5.357-42.872 16.739 1.398 34.157 2.141 52.15 2.212Zm-96.283-7.679c13.78 2.309 28.179 4.107 43.122 5.381 1.275 14.944 3.072 29.343 5.382 43.123a459.643 459.643 0 0 0 3.019 16.251c-23.593 1.352-45.643.69-65.754-2.02-2.71-20.111-3.372-42.161-2.02-65.755a461.921 461.921 0 0 0 16.251 3.02Zm-14.091 63.761c20.164 2.696 42.239 3.343 65.818 1.984 4.79 23.127 11.128 44.283 18.951 63.062-24.109 3.005-46.273 2.433-65.846-1.948-9.297-17.772-15.586-39.033-18.923-63.098Zm19.538 64.26c19.575 4.257 41.667 4.755 65.631 1.742 9.374 22.26 20.85 41.143 34.324 55.968-21.601.696-41.415-3.706-58.726-13.701-17.312-9.995-31.031-24.953-41.229-44.009Zm-20.565-64.399c3.292 23.928 9.49 45.138 18.669 62.944-21.046-4.919-39.045-14.299-53.179-28.433-14.135-14.135-23.515-32.134-28.434-53.179 17.807 9.178 39.016 15.376 62.944 18.668Zm-.139-1.027c-24.065-3.337-45.326-9.626-63.098-18.923-4.381-19.573-4.953-41.737-1.948-65.846 18.779 7.822 39.935 14.16 63.062 18.95-1.359 23.58-.712 45.655 1.984 65.819Zm-66.002-85.17c-3.012 23.965-2.515 46.057 1.742 65.632-19.056-10.198-34.015-23.917-44.009-41.229-9.995-17.312-14.397-37.125-13.701-58.727 14.824 13.474 33.707 24.951 55.968 34.324Zm-41.577-315.816c-19.077 14.815-34.346 30.788-45.178 47.64-6.263-20.686-7.14-40.963-1.966-60.272 5.174-19.309 16.072-36.432 31.839-51.215.955 20.01 6.192 41.478 15.305 63.847Zm.819-.635c-9.142-22.51-14.326-44.066-15.16-64.106 14.76-13.58 33.668-25.158 56.049-34.61 2.615 20.176 7.704 41.666 15.119 64.09-21.099 10.613-39.893 22.21-56.008 34.626Zm104.776-119.095c-23.128 4.79-44.283 11.129-63.062 18.951-3.005-24.108-2.433-46.272 1.947-65.845 17.773-9.298 39.033-15.587 63.099-18.924-2.696 20.164-3.343 42.239-1.984 65.818ZM-317.201-106c9.994-17.311 24.952-31.03 44.007-41.228-4.257 19.575-4.754 41.666-1.741 65.63-22.26 9.374-41.143 20.85-55.967 34.324-.696-21.602 3.706-41.415 13.701-58.726Zm108.407-61.794c-23.928 3.293-45.138 9.491-62.944 18.669 4.918-21.046 14.298-39.045 28.433-53.18 14.135-14.134 32.134-23.514 53.18-28.433-9.179 17.806-15.377 39.016-18.669 62.944Zm1.027-.139c3.337-24.065 9.626-45.326 18.923-63.098 19.574-4.381 41.737-4.953 65.846-1.948-7.823 18.779-14.161 39.934-18.951 63.062-23.579-1.359-45.654-.712-65.818 1.984Zm66.827-1.925c4.8-23.139 11.147-44.266 18.969-62.991 20.128 2.588 41.598 7.655 64.038 15.068a460.848 460.848 0 0 0-7.123 14.915c-5.797 12.713-11.26 26.156-16.359 40.261-14.764-2.637-29.138-4.627-43.045-5.963a461.386 461.386 0 0 0-16.48-1.29Zm83.46-48.827c-22.425-7.415-43.915-12.504-64.09-15.119 9.452-22.381 21.029-41.29 34.61-56.05 20.04.834 41.597 6.018 64.107 15.161-12.417 16.115-24.014 34.909-34.627 56.008Zm-6.666 16.234a460.054 460.054 0 0 1 7.172-15.012 460.742 460.742 0 0 1 15.686 5.544c13.013 4.862 26.305 10.469 39.807 16.797-9.58 13.797-18.933 28.509-27.99 44.056-17.399-4.588-34.415-8.379-50.945-11.36 5.073-14.021 10.506-27.386 16.27-40.025Zm35.677 51.651c9.032-15.49 18.356-30.147 27.906-43.891 15.142 7.128 30.546 15.16 46.112 24.058a769.178 769.178 0 0 0-30.915 32.656A768.912 768.912 0 0 0-28.47-150.8Zm44.139 13.165a766.873 766.873 0 0 1 30.78-32.483 767.34 767.34 0 0 1 38.138 23.41 851.305 851.305 0 0 0-32.135 22.185 850.84 850.84 0 0 0-36.783-13.112Zm69.83-9.671c-12.842-8.408-25.631-16.262-38.315-23.542 12.733-12.625 25.533-24.369 38.315-35.173 12.781 10.804 25.581 22.548 38.314 35.173A768.672 768.672 0 0 0 85.5-147.306Zm-31.932 23.21A848.751 848.751 0 0 1 85.5-146.111a848.512 848.512 0 0 1 31.932 22.015A911.724 911.724 0 0 0 85.5-111.138a911.583 911.583 0 0 0-31.932-12.958Zm101.762-13.539a850.895 850.895 0 0 0-36.783 13.112 851.057 851.057 0 0 0-32.135-22.185 767.33 767.33 0 0 1 38.138-23.41 766.944 766.944 0 0 1 30.78 32.483Zm1.036-.342c-10.228-11.444-20.549-22.341-30.916-32.656 15.567-8.898 30.97-16.93 46.112-24.058 9.55 13.744 18.874 28.401 27.906 43.891a768.729 768.729 0 0 0-43.102 12.823Zm44.105-13.088c-9.058-15.548-18.41-30.26-27.991-44.057 13.502-6.327 26.795-11.935 39.808-16.797a458.641 458.641 0 0 1 15.686-5.544 459.434 459.434 0 0 1 7.172 15.012c5.764 12.639 11.197 26.004 16.27 40.025-16.53 2.981-33.547 6.772-50.945 11.361Zm27.05-67.301a459.7 459.7 0 0 0-15.583 5.51c-13.089 4.89-26.458 10.533-40.037 16.901-8.575-12.304-17.332-23.875-26.222-34.654a459.58 459.58 0 0 0-10.74-12.564c19.757-12.968 39.184-23.42 57.955-31.129 12.403 16.062 24.001 34.827 34.627 55.936Zm8.535 15.5a460.429 460.429 0 0 0-7.123-14.915c22.44-7.413 43.91-12.48 64.037-15.068 7.822 18.725 14.169 39.852 18.969 62.992-5.415.324-10.91.754-16.479 1.289-13.907 1.336-28.281 3.326-43.045 5.963-5.099-14.105-10.562-27.548-16.359-40.261Zm56.513-30.938c-20.175 2.615-41.665 7.704-64.089 15.119-10.613-21.099-22.21-39.894-34.627-56.008 22.51-9.143 44.066-14.327 64.106-15.161 13.581 14.761 25.158 33.669 34.61 56.05Zm20.379 63.887c-4.79-23.127-11.128-44.283-18.951-63.062 24.109-3.005 46.273-2.433 65.846 1.948 9.298 17.772 15.587 39.033 18.924 63.098-20.164-2.696-42.239-3.343-65.819-1.984Zm46.28-62.277c-19.575-4.256-41.666-4.754-65.631-1.741-9.373-22.26-20.85-41.143-34.324-55.967 21.602-.696 41.415 3.705 58.727 13.7 17.311 9.995 31.03 24.953 41.228 44.008Zm20.566 64.4c-3.293-23.928-9.491-45.138-18.669-62.944 21.046 4.918 39.045 14.298 53.18 28.433 14.135 14.135 23.515 32.134 28.433 53.18-17.806-9.178-39.016-15.376-62.944-18.669ZM-147-276.202c17.311-9.994 37.124-14.396 58.726-13.7-13.474 14.824-24.951 33.707-34.324 55.967-23.964-3.013-46.056-2.515-65.631 1.742 10.199-19.056 23.917-34.014 41.229-44.009Zm124.78.689c-22.368-9.113-43.835-14.35-63.845-15.304 14.782-15.767 31.905-26.665 51.214-31.838 19.308-5.174 39.586-4.298 60.271 1.965-16.851 10.832-32.824 26.101-47.64 45.177Zm.96.393c14.922-19.172 30.999-34.44 47.937-45.183 19.141 5.993 38.622 16.58 57.998 31.236-16.165 12.352-32.23 27.504-47.943 45.138C16.99-256.895-2.45-267.373-21.26-275.12ZM85.5-289.694c-19.248-14.592-38.628-25.207-57.71-31.308C46.15-332.405 65.51-338.5 85.5-338.5c19.99 0 39.349 6.094 57.709 17.498-19.081 6.101-38.462 16.716-57.71 31.308Zm-47.924 46.321c15.727-17.639 31.787-32.763 47.923-45.067 16.137 12.304 32.197 27.428 47.925 45.067a461.363 461.363 0 0 0-13.627 9.356c-11.376 8.111-22.83 17.021-34.297 26.687-11.468-9.666-22.921-18.576-34.298-26.687a461.476 461.476 0 0 0-13.626-9.356Zm96.691-.556c-15.712-17.634-31.778-32.786-47.943-45.138 19.377-14.657 38.857-25.243 57.999-31.236 16.938 10.743 33.014 26.011 47.937 45.183-18.811 7.747-38.251 18.225-57.993 31.191Zm122.797-46.888c-20.009.954-41.477 6.191-63.845 15.304-14.815-19.076-30.788-34.345-47.64-45.177 20.686-6.263 40.963-7.139 60.272-1.965 19.308 5.173 36.431 16.071 51.213 31.838Zm-122.969 48.199a461.82 461.82 0 0 1 10.813 12.645c8.838 10.717 17.546 22.219 26.075 34.45-15.195 7.158-30.651 15.223-46.269 24.159-12.773-12.673-25.614-24.464-38.439-35.311 11.404-9.607 22.792-18.464 34.103-26.528a461.066 461.066 0 0 1 13.717-9.415Zm-49.37 35.943c-12.825 10.847-25.667 22.637-38.44 35.311C30.667-180.3 15.211-188.365.016-195.523c8.53-12.231 17.237-23.733 26.076-34.45a460.068 460.068 0 0 1 10.812-12.645 460.552 460.552 0 0 1 13.718 9.415c11.31 8.064 22.699 16.921 34.103 26.528ZM36.06-243.174c-3.6 4.06-7.182 8.249-10.741 12.565C16.43-219.83 7.674-208.26-.902-195.955c-13.579-6.368-26.948-12.011-40.036-16.901a461.986 461.986 0 0 0-15.583-5.51c10.626-21.109 22.224-39.874 34.627-55.935 18.771 7.708 38.198 18.16 57.954 31.127Zm82.338 119.778a912.974 912.974 0 0 1 27.238 20.552 958.18 958.18 0 0 0-30.594 4.943 959.248 959.248 0 0 0-28.272-12.693 912.561 912.561 0 0 1 31.628-12.802ZM85.5-110.051a955.688 955.688 0 0 1 27.836 12.455A991.814 991.814 0 0 0 85.5-92.174a992.286 992.286 0 0 0-27.836-5.422A955.203 955.203 0 0 1 85.5-110.05Zm-32.899-13.345a912.091 912.091 0 0 1 31.629 12.802 959.494 959.494 0 0 0-28.273 12.693 960.62 960.62 0 0 0-30.594-4.943 912.451 912.451 0 0 1 27.238-20.552Zm-1.115-.426a913.43 913.43 0 0 0-27.491 20.781 912.646 912.646 0 0 0-34.198-4.251 848.673 848.673 0 0 1 25.146-29.53 849.437 849.437 0 0 1 36.543 13Zm-37.579-13.341a851.37 851.37 0 0 0-25.298 29.747 851.88 851.88 0 0 0-38.924-3.146c6.892-13.631 14.012-26.76 21.325-39.342a767.062 767.062 0 0 1 42.897 12.741Zm-43.9-13.006a768 768 0 0 0-21.41 39.546 769.106 769.106 0 0 0-44.953-1.231c4.716-17.3 9.928-33.871 15.596-49.618 16.47 2.966 33.428 6.737 50.767 11.303Zm-51.766-11.482c-5.683 15.806-10.909 32.438-15.634 49.8-17.993.071-35.411.814-52.15 2.212 1.271-14.856 3.061-29.171 5.357-42.872a458.11 458.11 0 0 1 3.042-16.357c5.449.325 10.98.757 16.588 1.295 13.828 1.328 28.118 3.305 42.797 5.922Zm-63.413 8.975c-2.31 13.78-4.108 28.179-5.382 43.123-14.944 1.274-29.343 3.072-43.122 5.381a459.63 459.63 0 0 0-16.251 3.02c-1.353-23.594-.69-45.644 2.02-65.755 20.111-2.71 42.161-3.372 65.754-2.02a459.643 459.643 0 0 0-3.019 16.251ZM318 529.202c-17.312 9.995-37.125 14.397-58.727 13.7 13.474-14.824 24.95-33.707 34.324-55.967 23.965 3.013 46.056 2.515 65.631-1.742-10.198 19.056-23.917 34.014-41.228 44.009ZM24.276 354.99A954.063 954.063 0 0 1 .612 335.755c9.337.784 18.77 1.441 28.292 1.967a989.549 989.549 0 0 0 25.484 12.442 958.093 958.093 0 0 1-30.112 4.826Zm61.224 8.06a956.091 956.091 0 0 1-27.835-12.455 989.343 989.343 0 0 0 27.835-5.422 986.144 986.144 0 0 0 27.835 5.422A955.59 955.59 0 0 1 85.5 363.05Zm1.27.543a957.342 957.342 0 0 0 28.273-12.692 959.432 959.432 0 0 0 30.594 4.943 911.185 911.185 0 0 1-27.237 20.551 908.005 908.005 0 0 1-31.63-12.802Zm32.745 13.229a913.784 913.784 0 0 0 27.49-20.781 913.012 913.012 0 0 0 34.198 4.251 849.517 849.517 0 0 1-25.146 29.53 851.063 851.063 0 0 1-36.542-13Zm37.578 13.341a851.695 851.695 0 0 0 25.298-29.747 851.819 851.819 0 0 0 38.923 3.146c-6.892 13.631-14.011 26.759-21.324 39.342-14.068-3.727-28.385-7.976-42.897-12.741Zm43.9 13.005a769.503 769.503 0 0 0 21.41-39.545 769.127 769.127 0 0 0 44.953 1.231c-4.716 17.3-9.929 33.87-15.595 49.618-16.471-2.966-33.429-6.737-50.768-11.304Zm51.766 11.482c5.683-15.806 10.909-32.437 15.634-49.799 17.993-.071 35.411-.814 52.149-2.212-1.271 14.856-3.061 29.171-5.357 42.872a458.11 458.11 0 0 1-3.042 16.357 459.267 459.267 0 0 1-16.586-1.296c-13.828-1.328-28.118-3.304-42.798-5.922Zm63.412-8.974c2.31-13.78 4.108-28.179 5.382-43.123 14.944-1.274 29.343-3.072 43.123-5.381a461.921 461.921 0 0 0 16.251-3.02c1.352 23.594.69 45.644-2.02 65.755-20.111 2.71-42.161 3.372-65.755 2.02a459.643 459.643 0 0 0 3.019-16.251ZM487.12 19.74c19.172 14.922 34.44 30.999 45.183 47.937-5.993 19.142-16.579 38.622-31.236 57.998-12.352-16.164-27.505-32.23-45.139-47.943C468.895 57.99 479.372 38.55 487.12 19.74Zm13.32 106.76c-12.304 16.137-27.427 32.197-45.067 47.923a459.329 459.329 0 0 0-9.355-13.625c-8.111-11.377-17.022-22.831-26.688-34.299 9.666-11.467 18.576-22.92 26.686-34.297a459.556 459.556 0 0 0 9.356-13.626c17.64 15.727 32.763 31.787 45.068 47.924ZM486.301 19.105c-7.709 18.772-18.16 38.199-31.128 57.956a460.114 460.114 0 0 0-12.564-10.74c-10.779-8.89-22.35-17.647-34.654-26.222 6.368-13.58 12.011-26.948 16.901-40.037a459.794 459.794 0 0 0 5.51-15.583c21.109 10.626 39.873 22.224 55.935 34.626Zm-78.778 21.912c12.231 8.529 23.733 17.236 34.45 26.075a460.237 460.237 0 0 1 12.645 10.812 460.35 460.35 0 0 1-9.416 13.718c-8.064 11.311-16.92 22.698-26.527 34.102-10.847-12.825-22.637-25.666-35.31-38.439 8.935-15.618 17-31.073 24.158-46.268ZM423.919-.288c-4.862 13.013-10.469 26.305-16.797 39.807-13.797-9.58-28.509-18.932-44.057-27.99 4.589-17.399 8.379-34.415 11.361-50.945 14.021 5.073 27.385 10.506 40.025 16.27a460.897 460.897 0 0 1 15.013 7.172 458.634 458.634 0 0 1-5.545 15.686ZM362.8 12.532c15.49 9.032 30.147 18.356 43.891 27.905-7.128 15.142-15.159 30.546-24.057 46.112a769.193 769.193 0 0 0-32.657-30.916A768.861 768.861 0 0 0 362.8 12.53Zm10.672-52.293c-2.966 16.471-6.737 33.429-11.304 50.768a768.904 768.904 0 0 0-39.545-21.41 769.115 769.115 0 0 0 1.231-44.953c17.299 4.716 33.87 9.928 49.618 15.595ZM322.561-9.314a767.31 767.31 0 0 1 39.343 21.324 767.673 767.673 0 0 1-12.741 42.896 851.489 851.489 0 0 0-29.747-25.298 851.815 851.815 0 0 0 3.145-38.922Zm.292-46.314c.042 14.553-.357 29.483-1.204 44.734a851.11 851.11 0 0 0-35.281-16.738 851.405 851.405 0 0 0-7.035-38.41 767.302 767.302 0 0 1 43.52 10.414Zm-36.297 29.176a849.271 849.271 0 0 1 35.032 16.646 849.617 849.617 0 0 1-3.1 38.661A911.34 911.34 0 0 0 291.3 7.68a909.739 909.739 0 0 0-4.744-34.132Zm-8.291-39.813a850.395 850.395 0 0 1 7.013 38.147 912.226 912.226 0 0 0-31.743-13.418 912.339 912.339 0 0 0-13.417-31.742 849.558 849.558 0 0 1 38.147 7.013Zm-24.217 26.013a909.835 909.835 0 0 1 31.418 13.313 909.206 909.206 0 0 1 4.727 33.791 957.55 957.55 0 0 0-25.128-18.139 960.464 960.464 0 0 0-11.017-28.965Zm-15.109-33.214a910.686 910.686 0 0 1 13.312 31.417 957.155 957.155 0 0 0-28.966-11.017 958.211 958.211 0 0 0-18.138-25.128 910.24 910.24 0 0 1 33.792 4.728Zm-14.663 21.824a954.99 954.99 0 0 1 28.49 10.876 956.233 956.233 0 0 1 10.875 28.488 991.85 991.85 0 0 0-23.517-15.849 990.409 990.409 0 0 0-15.848-23.515ZM203.775-78.36a957.755 957.755 0 0 1 17.879 24.704 992.672 992.672 0 0 0-26.818-9.222 989.934 989.934 0 0 0-21.395-18.613 955.644 955.644 0 0 1 30.334 3.131Zm-32.061-3.28a990.841 990.841 0 0 1 20.756 17.99 1017.974 1017.974 0 0 0-24.985-7.773 1018.363 1018.363 0 0 0-23.167-12.172 986.45 986.45 0 0 1 27.396 1.956Zm.026 12.535c7.606 2.298 15.136 4.67 22.585 7.112 5.84 5.23 11.659 10.565 17.452 16.003a1036.007 1036.007 0 0 0-40.037-23.115Zm64.214 45.15a1038.317 1038.317 0 0 0-16.531-16.168c6.754 4.19 13.414 8.43 19.979 12.718a1018.697 1018.697 0 0 1 12.718 19.98 1038.101 1038.101 0 0 0-16.166-16.53Zm2.085-5.532a1018.95 1018.95 0 0 0-22.126-13.977 1016.97 1016.97 0 0 0-19.224-17.75 989.267 989.267 0 0 1 25.958 8.98 990.903 990.903 0 0 1 15.392 22.747Zm17.422 25.57a1021.572 1021.572 0 0 0-13.977-22.125 989.033 989.033 0 0 1 22.748 15.393 986.81 986.81 0 0 1 8.981 25.958 1017.638 1017.638 0 0 0-17.752-19.225Zm19.415 21.079a992.351 992.351 0 0 0-9.222-26.818 955.326 955.326 0 0 1 24.704 17.88 953.541 953.541 0 0 1 3.132 30.334 991.594 991.594 0 0 0-18.614-21.396Zm19.733 22.722a960.344 960.344 0 0 0-3.145-30.832 909.646 909.646 0 0 1 26.901 20.99 908.1 908.1 0 0 1-4.18 33.865 958.207 958.207 0 0 0-19.576-24.023Zm20.431 25.11a910.667 910.667 0 0 0 4.252-34.2 849.636 849.636 0 0 1 29.53 25.147 848.132 848.132 0 0 1-13.001 36.544 909.948 909.948 0 0 0-20.781-27.491Zm21.483 28.457a850.857 850.857 0 0 0 13.112-36.783 766.819 766.819 0 0 1 32.483 30.78 766.692 766.692 0 0 1-23.41 38.139 851.728 851.728 0 0 0-22.185-32.136Zm22.783 33.048a768.307 768.307 0 0 0 23.543-38.315c12.624 12.733 24.368 25.533 35.172 38.314-10.804 12.782-22.549 25.582-35.173 38.315a768.67 768.67 0 0 0-23.542-38.314Zm24.058 39.214c12.673-12.773 24.464-25.615 35.311-38.44 9.607 11.405 18.464 22.793 26.528 34.104a459.226 459.226 0 0 1 9.416 13.717 460.127 460.127 0 0 1-12.646 10.813c-10.717 8.839-22.219 17.546-34.45 26.075-7.158-15.195-15.224-30.651-24.159-46.269Zm-.731.736c8.898 15.567 16.93 30.971 24.057 46.113-13.743 9.549-28.401 18.874-43.89 27.906-3.75-14.136-8.027-28.522-12.823-43.103a769.158 769.158 0 0 0 32.656-30.916Zm-33.47 31.643a767.657 767.657 0 0 1 12.741 42.897 766.56 766.56 0 0 1-39.343 21.324 852.028 852.028 0 0 0-3.145-38.923 851.695 851.695 0 0 0 29.747-25.298Zm-30.675 26.051a848.18 848.18 0 0 1 3.099 38.662 849.652 849.652 0 0 1-35.031 16.646 911.9 911.9 0 0 0 4.745-34.133 914.685 914.685 0 0 0 27.187-21.175Zm-28.294 22.003a911.502 911.502 0 0 1-4.728 33.792 908.268 908.268 0 0 1-31.418 13.313 954.82 954.82 0 0 0 11.017-28.967 959.787 959.787 0 0 0 25.129-18.138Zm-26.552 19.13a954.051 954.051 0 0 1-10.876 28.489 953.07 953.07 0 0 1-28.49 10.876 990.337 990.337 0 0 0 15.849-23.517 993.359 993.359 0 0 0 23.517-15.848Zm-25.602 17.207a991.048 991.048 0 0 1-15.393 22.749 990.666 990.666 0 0 1-25.957 8.981 1020.317 1020.317 0 0 0 19.227-17.754 1016.272 1016.272 0 0 0 22.123-13.976Zm-26.259 16.501a1009.965 1009.965 0 0 1-17.455 16.007 1016.883 1016.883 0 0 1-22.589 7.113 1041.802 1041.802 0 0 0 40.044-23.12Zm27.622-18.582a1011.974 1011.974 0 0 1-19.976 12.715 1034.885 1034.885 0 0 0 32.692-32.691 1014.95 1014.95 0 0 1-12.716 19.976Zm2.082-1.364a1016.172 1016.172 0 0 0 13.975-22.122 1016.909 1016.909 0 0 0 17.753-19.227 986.99 986.99 0 0 1-8.98 25.957 990.954 990.954 0 0 1-22.748 15.392Zm24.169-16.385a990.25 990.25 0 0 0 9.222-26.816 991.59 991.59 0 0 0 18.614-21.396 956.468 956.468 0 0 1-3.131 30.333 957.65 957.65 0 0 1-24.705 17.879Zm27.985-49.94a988.376 988.376 0 0 1-17.99 20.757 1013.9 1013.9 0 0 0 7.774-24.988c4.187-7.726 8.244-15.45 12.173-23.167a990.177 990.177 0 0 1-1.957 27.398Zm-2.175 31.232a960.267 960.267 0 0 0 3.145-30.83 958.224 958.224 0 0 0 19.576-24.024 908.034 908.034 0 0 1 4.18 33.864 910.217 910.217 0 0 1-26.901 20.99Zm22.526-56.221a954.663 954.663 0 0 1-19.235 23.663 991.976 991.976 0 0 0 1.967-28.292 993.09 993.09 0 0 0 12.442-25.482 957.543 957.543 0 0 1 4.826 30.111Zm5.302 34.478a910.645 910.645 0 0 0-4.252-34.197 910.917 910.917 0 0 0 20.782-27.491 850.58 850.58 0 0 1 13 36.542 850.614 850.614 0 0 1-29.53 25.146Zm16.103-62.803a909.559 909.559 0 0 1-20.552 27.238 959.401 959.401 0 0 0-4.942-30.594 960.235 960.235 0 0 0 12.692-28.273 907.44 907.44 0 0 1 12.802 31.629Zm.701-.967a913.17 913.17 0 0 0-12.958-31.933 915.653 915.653 0 0 0 12.958-31.932 850.518 850.518 0 0 1 22.015 31.932 850.291 850.291 0 0 1-22.015 31.933Zm.427 1.115a851.143 851.143 0 0 0 22.185-32.135 766.531 766.531 0 0 1 23.409 38.137 767.516 767.516 0 0 1-32.482 30.78 852.203 852.203 0 0 0-13.112-36.782Zm-21.68-93.185A908.78 908.78 0 0 1 335.395 93.6a908.043 908.043 0 0 1-12.802 31.628 956.517 956.517 0 0 0-12.692-28.272 959.481 959.481 0 0 0 4.942-30.594Zm-5.248 32.301A956.236 956.236 0 0 1 322.05 126.5a956.612 956.612 0 0 1-12.455 27.836 993.163 993.163 0 0 0-5.422-27.835 993.484 993.484 0 0 0 5.422-27.837Zm-.735 57.243a989.744 989.744 0 0 1-12.003 24.703c.456-8.646.804-17.365 1.041-26.149a1017.937 1017.937 0 0 0 5.761-25.524 987.479 987.479 0 0 1 5.201 26.97Zm.001-58.813a991.201 991.201 0 0 1-5.202 26.97 1018.044 1018.044 0 0 0-5.761-25.524c-.237-8.784-.585-17.503-1.041-26.15a992.859 992.859 0 0 1 12.004 24.704Zm-10.843 6.29a1014.206 1014.206 0 0 1 5.133 23.117c-1.61 7.672-3.32 15.379-5.133 23.116a1041.784 1041.784 0 0 0 0-46.233Zm-2.283-33.216c.431 7.829.773 15.718 1.025 23.661a1037.032 1037.032 0 0 0-11.968-44.664 1014.101 1014.101 0 0 1 10.943 21.003Zm-.139-2.484a1023.414 1023.414 0 0 0-12.173-23.168 1017.44 1017.44 0 0 0-7.774-24.986 989.641 989.641 0 0 1 17.99 20.756 990.272 990.272 0 0 1 1.957 27.398ZM257.986.22a1010.854 1010.854 0 0 1 16.005 17.454c2.442 7.45 4.814 14.98 7.113 22.587A1038.646 1038.646 0 0 0 257.986.221Zm38.736 69.684a991.927 991.927 0 0 0-1.967-28.29 954.108 954.108 0 0 1 19.235 23.662 957.987 957.987 0 0 1-4.826 30.11 992.82 992.82 0 0 0-12.442-25.482Zm.038 89.268a1017.1 1017.1 0 0 1-1.025 23.66 1014.57 1014.57 0 0 1-10.943 21.003 1037.95 1037.95 0 0 0 11.968-44.663Zm-15.656 53.566a1006.44 1006.44 0 0 1-7.113 22.589 1013.803 1013.803 0 0 1-16.005 17.454 1039.108 1039.108 0 0 0 23.118-40.043ZM141.833-83.735a1014.095 1014.095 0 0 1 21.003 10.943 1036.704 1036.704 0 0 0-44.663-11.968 1017.1 1017.1 0 0 1 23.66 1.025ZM-23.325-61.992c7.45-2.442 14.98-4.814 22.586-7.113a1037.47 1037.47 0 0 0-40.04 23.117 1014.776 1014.776 0 0 1 17.454-16.004Zm-2.364.778a1017.658 1017.658 0 0 0-19.225 17.752A1017.712 1017.712 0 0 0-67.04-29.485a989.35 989.35 0 0 1 15.393-22.748 989.373 989.373 0 0 1 25.958-8.981Zm-27.588 9.572a992 992 0 0 0-15.848 23.516 991.764 991.764 0 0 0-23.517 15.85 955.37 955.37 0 0 1 10.875-28.49 955.882 955.882 0 0 1 28.49-10.876Zm-39.957 40.995a989.104 989.104 0 0 1 22.75-15.393c-4.72 7.26-9.38 14.637-13.978 22.126a1016.011 1016.011 0 0 0-17.752 19.226 987.16 987.16 0 0 1 8.98-25.96Zm10.185-29.605a957.836 957.836 0 0 0-11.017 28.966 958.86 958.86 0 0 0-25.128 18.138 911.28 911.28 0 0 1 4.728-33.791 909.57 909.57 0 0 1 31.417-13.313Zm-36.31 48.476A955.143 955.143 0 0 1-94.655-9.654a990.01 990.01 0 0 0-9.222 26.818A991.474 991.474 0 0 0-122.49 38.56a956.455 956.455 0 0 1 3.131-30.335Zm3.803-34.676a911.812 911.812 0 0 0-4.745 34.133 912.41 912.41 0 0 0-27.188 21.175 849.646 849.646 0 0 1-3.1-38.661 850.016 850.016 0 0 1 35.033-16.647Zm-31.81 56.496a909.577 909.577 0 0 1 26.902-20.99 960.297 960.297 0 0 0-3.145 30.83 958.478 958.478 0 0 0-19.577 24.025 908.1 908.1 0 0 1-4.18-33.865Zm-4.196-39.358a851.853 851.853 0 0 0 3.145 38.923 851.221 851.221 0 0 0-29.746 25.298 767.062 767.062 0 0 1-12.741-42.897c12.582-7.313 25.711-14.432 39.342-21.324Zm-26.26 65.257a849.586 849.586 0 0 1 29.529-25.146 912.75 912.75 0 0 0 4.252 34.199 913.409 913.409 0 0 0-20.781 27.49 849.451 849.451 0 0 1-13-36.543ZM-191.8 12.532a768.898 768.898 0 0 0 12.823 43.101 768.971 768.971 0 0 0-32.657 30.916c-8.898-15.566-16.929-30.97-24.057-46.112 13.744-9.55 28.401-18.873 43.891-27.905Zm-19.318 74.917a767.514 767.514 0 0 1 32.482-30.78 852.18 852.18 0 0 0 13.113 36.784 851.477 851.477 0 0 0-22.185 32.135c-8.36-12.784-16.17-25.514-23.41-38.139Zm-25.406-46.432c7.159 15.195 15.224 30.65 24.159 46.268-12.673 12.773-24.463 25.615-35.31 38.439-9.606-11.404-18.463-22.791-26.527-34.102a459.85 459.85 0 0 1-9.416-13.718 460.06 460.06 0 0 1 12.645-10.812c10.716-8.839 22.219-17.546 34.449-26.075Zm-10.497 85.482c10.804-12.781 22.548-25.581 35.172-38.314 7.281 12.684 15.135 25.473 23.542 38.315a769.387 769.387 0 0 0-23.541 38.314c-12.624-12.733-24.369-25.533-35.173-38.315Zm-.654.775c10.847 12.825 22.638 25.667 35.311 38.44-8.936 15.618-17.001 31.074-24.159 46.27-12.231-8.53-23.734-17.237-34.451-26.076a460.07 460.07 0 0 1-12.645-10.813 461.118 461.118 0 0 1 9.416-13.717c8.064-11.311 16.921-22.699 26.528-34.104Zm-.655-.775c-9.666 11.468-18.577 22.922-26.688 34.299a459.361 459.361 0 0 0-9.355 13.626c-17.64-15.727-32.763-31.787-45.067-47.924 12.304-16.137 27.428-32.197 45.067-47.924a461.534 461.534 0 0 0 9.357 13.626c8.11 11.377 17.021 22.829 26.686 34.297Zm56.53 113.97c-15.49-9.032-30.147-18.356-43.891-27.906 7.128-15.142 15.16-30.546 24.058-46.113 10.316 10.367 21.212 20.687 32.656 30.916a768.758 768.758 0 0 0-12.823 43.103Zm-19.317-74.919a766.531 766.531 0 0 1 23.409-38.137 851.143 851.143 0 0 0 22.185 32.135 850.86 850.86 0 0 0-13.112 36.782c-11.383-10.185-22.222-20.46-32.482-30.78Zm20.213 75.44c3.726-14.068 7.975-28.386 12.741-42.898a850.61 850.61 0 0 0 29.747 25.298 850.555 850.555 0 0 0-3.146 38.924 766.522 766.522 0 0 1-39.342-21.324Zm42.611-18.788a848.38 848.38 0 0 1-29.529-25.146 849.187 849.187 0 0 1 13-36.541 913.784 913.784 0 0 0 20.781 27.49 914.82 914.82 0 0 0-4.252 34.197Zm-2.295 40.603a849.612 849.612 0 0 1 3.099-38.662 911.416 911.416 0 0 0 27.188 21.175 911.666 911.666 0 0 0 4.745 34.134 848.404 848.404 0 0 1-35.032-16.647Zm30.124-18.859a909.92 909.92 0 0 1-26.902-20.991 910.097 910.097 0 0 1 4.18-33.863 958.28 958.28 0 0 0 19.577 24.024 960.267 960.267 0 0 0 3.145 30.83Zm5.998 35.994a911.613 911.613 0 0 1-4.728-33.794 956.69 956.69 0 0 0 25.127 18.138 958.573 958.573 0 0 0 11.018 28.968 910.146 910.146 0 0 1-31.417-13.312Zm19.81-17.287a953.813 953.813 0 0 1-24.703-17.879 956.1 956.1 0 0 1-3.131-30.332 991.451 991.451 0 0 0 18.613 21.394 991.209 991.209 0 0 0 9.221 26.817Zm12.89 31.113a954.782 954.782 0 0 1-10.877-28.491 990.514 990.514 0 0 0 23.517 15.849 989.89 989.89 0 0 0 15.849 23.518 953.482 953.482 0 0 1-28.49-10.876Zm11.28-14.728a987.774 987.774 0 0 1-22.748-15.392 987.721 987.721 0 0 1-8.98-25.957 1015.586 1015.586 0 0 0 17.753 19.227 1016.176 1016.176 0 0 0 13.975 22.122Zm18.839 26.195a988.8 988.8 0 0 1-15.394-22.749 1022.53 1022.53 0 0 0 22.123 13.975 1017.708 1017.708 0 0 0 19.228 17.755 990.418 990.418 0 0 1-25.957-8.981Zm3.219-12.115a1014.062 1014.062 0 0 1-19.976-12.716 1015.407 1015.407 0 0 1-12.716-19.976 1037.982 1037.982 0 0 0 32.692 32.692Zm25.102 21.874a1015.613 1015.613 0 0 1-17.456-16.008A1033.573 1033.573 0 0 0-.735 322.105a1012.53 1012.53 0 0 1-22.591-7.113Zm-75.442-82.105a1036.417 1036.417 0 0 0 11.781 19.893 1014.72 1014.72 0 0 1-16.006-17.454 1020.216 1020.216 0 0 1-7.113-22.589 1036.224 1036.224 0 0 0 11.337 20.15Zm-13.657-24.406a1021.295 1021.295 0 0 0 7.774 24.989 990.718 990.718 0 0 1-17.988-20.755 990.177 990.177 0 0 1-1.957-27.398c3.928 7.716 7.985 15.44 12.171 23.164Zm-13.297-25.384a991.905 991.905 0 0 0 1.967 28.291 956.556 956.556 0 0 1-19.235-23.664 952.2 952.2 0 0 1 4.826-30.111 989.901 989.901 0 0 0 12.442 25.484Zm-13.179-27.054a956.602 956.602 0 0 0-4.943 30.594 912.943 912.943 0 0 1-20.552-27.237 911.39 911.39 0 0 1 12.802-31.629 959.053 959.053 0 0 0 12.693 28.272Zm-13.237-29.543a911.222 911.222 0 0 0-12.958 31.933 849.106 849.106 0 0 1-22.015-31.933 849.896 849.896 0 0 1 22.015-31.932 911.97 911.97 0 0 0 12.958 31.932Zm.544-1.271a911.347 911.347 0 0 1-12.802-31.628 912.3 912.3 0 0 1 20.552-27.237 959.521 959.521 0 0 0 4.942 30.594 962.081 962.081 0 0 0-12.692 28.271Zm13.43-29.841a952.211 952.211 0 0 1-4.826-30.11 953.958 953.958 0 0 1 19.235-23.665 991.863 991.863 0 0 0-1.967 28.29 989.778 989.778 0 0 0-12.442 25.484Zm13.568-27.705a990.234 990.234 0 0 1 1.957-27.397 989.198 989.198 0 0 1 17.988-20.755 1017.613 1017.613 0 0 0-7.773 24.987 1019.355 1019.355 0 0 0-12.172 23.165Zm14.491-27.42a1013.19 1013.19 0 0 1 7.112-22.588A1015.95 1015.95 0 0 1-86.987.221a1036.987 1036.987 0 0 0-23.118 40.042Zm-14.63 29.904c3.54-6.994 7.188-13.996 10.942-21a1042.522 1042.522 0 0 0-11.967 44.659c.252-7.943.594-15.831 1.025-23.659Zm-1.122 2.222c-.456 8.646-.804 17.364-1.041 26.147a1014.168 1014.168 0 0 0-5.762 25.528 987.813 987.813 0 0 1-5.201-26.97 989.428 989.428 0 0 1 12.004-24.705Zm-12.739 26.276a992.46 992.46 0 0 0 5.422 27.835 993.163 993.163 0 0 0-5.422 27.835 955.36 955.36 0 0 1-12.455-27.835 956.563 956.563 0 0 1 12.455-27.835Zm.735 57.241a987.412 987.412 0 0 1 5.201-26.969 1013.85 1013.85 0 0 0 5.762 25.528c.237 8.783.585 17.501 1.041 26.146a988.206 988.206 0 0 1-12.004-24.705Zm24.067 47.927a1014.254 1014.254 0 0 1-10.941-21 1017.08 1017.08 0 0 1-1.025-23.657 1043.469 1043.469 0 0 0 11.966 44.657Zm-13.224-54.212a1014.562 1014.562 0 0 1-5.134-23.121c1.61-7.673 3.321-15.382 5.134-23.12a1042.056 1042.056 0 0 0 0 46.241ZM-81.121-7.424c4.19-6.754 8.43-13.415 12.718-19.98a1013.887 1013.887 0 0 1 19.98-12.717A1037.37 1037.37 0 0 0-81.122-7.424Z" stroke="#BFD340"/></svg>