<svg width="212" height="201" fill="none" xmlns="http://www.w3.org/2000/svg"><path d="M104.099 1c-2.137 17.45-1.508 22.587-16.432 24.531 14.671 2.384 14.882 7.758 16.432 24.531 2.04-16.873 1.643-21.926 16.432-24.53-14.904-1.916-14.403-7.103-16.432-24.532ZM60.682 16.907c-7.37 63.294-5.547 82.129-59.667 89.081 53.7 9.459 52.255 27.811 59.667 89.077 5.625-60.91 6.393-80.422 59.668-89.077-54.196-7.06-51.907-25.712-59.668-89.077v-.004Zm118.064 1.634c-3.977 34.155-2.994 44.319-32.2 48.072 28.98 5.105 28.201 15.009 32.2 48.072 3.035-32.871 3.45-43.4 32.198-48.072-29.247-3.81-28.012-13.876-32.198-48.072ZM28.041 20.477c-1.522 12.434-1.073 16.095-11.706 17.48 10.454 1.697 10.603 5.525 11.706 17.477 1.454-12.02 1.172-15.622 11.709-17.478-10.62-1.364-10.262-5.06-11.71-17.479Zm100.168 41.014c-1.43 12.883-1.008 16.674-10.995 18.11 9.817 1.759 9.957 5.726 10.995 18.109 1.365-12.455 1.098-16.186 10.994-18.11-9.972-1.413-9.636-5.241-10.994-18.109Zm76.374 47.576c-.83 7.476-.586 9.676-6.38 10.509 5.697 1.021 5.779 3.324 6.38 10.509.792-7.227.638-9.393 6.379-10.509-5.786-.82-5.591-3.042-6.379-10.509Zm-55.144 5.447c-2.789 23.949-2.101 31.075-22.578 33.706 20.319 3.578 19.775 10.523 22.578 33.707 2.129-23.049 2.419-30.433 22.577-33.707-20.507-2.671-19.64-9.729-22.577-33.706ZM35.014 132.035c-.83 7.476-.585 9.676-6.38 10.509 5.697 1.022 5.778 3.323 6.38 10.508.792-7.227.638-9.393 6.38-10.508-5.787-.82-5.592-3.042-6.38-10.509Zm71.127 9.436c-.829 7.475-.585 9.676-6.38 10.509 5.698 1.021 5.78 3.324 6.38 10.509.793-7.228.639-9.393 6.38-10.509-5.786-.82-5.591-3.043-6.38-10.509Zm-16.34 31.788c-1.18 9.627-.831 12.462-9.066 13.534 8.096 1.314 8.211 4.279 9.065 13.534 1.127-9.308.907-12.097 9.065-13.534-8.222-1.056-7.945-3.917-9.065-13.534Z" fill="#000" stroke="#000" stroke-width=".68" stroke-linecap="square"/></svg>